<?xml version="1.0" standalone="no"?>
<!DOCTYPE svg PUBLIC "-//W3C//DTD SVG 20010904//EN"
 "http://www.w3.org/TR/2001/REC-SVG-20010904/DTD/svg10.dtd">
<svg version="1.0" xmlns="http://www.w3.org/2000/svg"
 width="125.000000pt" height="125.000000pt" viewBox="0 0 125.000000 125.000000"
 preserveAspectRatio="xMidYMid meet">
<metadata>
Created by potrace 1.11, written by Peter Selinger 2001-2013
</metadata>
<g transform="translate(0.000000,125.000000) scale(0.100000,-0.100000)"
fill="#000000" stroke="none">
<path d="M50 1237 c-50 -26 -50 -22 -47 -624 l2 -562 23 -23 23 -23 574 0 574
0 23 23 23 23 0 574 0 574 -23 23 -23 23 -562 2 c-438 2 -567 0 -587 -10z
m700 -174 c69 -25 132 -54 142 -64 26 -30 138 -234 138 -252 0 -10 -7 -17 -16
-17 -9 0 -94 37 -190 81 l-173 81 -91 -78 -92 -79 4 -111 3 -111 42 -54 c23
-30 55 -69 71 -88 l28 -34 204 116 c184 105 230 124 230 95 0 -11 -150 -338
-161 -351 -6 -8 -356 -57 -406 -57 -29 0 -303 346 -303 384 0 24 46 347 56
394 3 17 43 41 182 112 97 49 184 87 192 84 8 -3 71 -26 140 -51z"/>
<path d="M640 1038 c0 -14 19 -79 26 -87 4 -4 107 29 117 39 4 4 -20 17 -55
30 -35 12 -69 25 -75 27 -7 3 -13 -1 -13 -9z"/>
<path d="M417 975 l-118 -62 67 -62 c37 -34 70 -58 74 -54 12 14 104 233 99
236 -2 2 -57 -24 -122 -58z"/>
<path d="M553 933 c-18 -42 -30 -79 -28 -82 3 -2 25 14 49 38 42 41 43 44 34
82 -6 21 -13 39 -17 39 -3 0 -21 -35 -38 -77z"/>
<path d="M788 938 c-32 -11 -58 -23 -58 -26 0 -6 167 -85 210 -100 5 -2 -10
31 -33 72 -23 42 -46 75 -52 75 -5 0 -36 -10 -67 -21z"/>
<path d="M277 862 c-7 -12 -39 -250 -35 -262 2 -6 41 24 87 67 l83 78 -65 62
c-37 34 -68 59 -70 55z"/>
<path d="M341 614 c-39 -36 -71 -69 -71 -74 0 -4 36 -8 80 -9 l80 -2 0 75 c0
42 -4 76 -9 76 -5 0 -41 -30 -80 -66z"/>
<path d="M262 472 c39 -54 173 -222 178 -222 5 0 -8 222 -13 226 -1 1 -42 4
-90 8 -86 7 -89 7 -75 -12z"/>
<path d="M820 399 c-74 -44 -136 -82 -137 -87 -2 -4 38 -21 88 -39 l90 -32 19
42 c10 23 34 77 54 120 19 42 32 77 28 76 -4 -1 -68 -37 -142 -80z"/>
<path d="M487 330 c3 -52 8 -97 10 -100 2 -2 20 12 40 33 42 41 41 48 -22 122
l-34 40 6 -95z"/>
<path d="M584 242 c-19 -21 -34 -40 -34 -43 0 -5 180 16 204 24 5 2 -23 15
-64 29 l-73 26 -33 -36z"/>
</g>
</svg>
